<?xml version="1.0" encoding="UTF-8"?><svg id="Ebene_1" xmlns="http://www.w3.org/2000/svg" viewBox="0 0 417.57 841.89"><defs><style>.cls-1{fill:#9ad357;}</style></defs><path class="cls-1" d="M80.38,841.91c-9.98,0-19.79-4.65-25.94-13.34-9.99-14.13-6.49-33.58,7.82-43.44,50.51-34.82,171.81-133.42,207.2-296.68,7.65-35.29,27.98-129.02-13.24-234.22-29.23-74.6-113.6-167.32-143.86-193.42-13.14-11.34-14.49-31.05-3.01-44.02,11.48-12.97,31.44-14.3,44.58-2.97,30.59,26.39,125.62,127.04,161.23,217.9,48.02,122.58,24.83,229.54,16.09,269.8-40.1,184.96-176.18,295.74-232.83,334.79-5.51,3.79-11.82,5.62-18.06,5.62Z"/><path class="cls-1" d="M109.42,151.5c-16.61,0-30.54-12.8-31.52-29.39-1.01-17.2,12.29-31.96,29.71-32.96l87.36-5.02c17.43-1.03,32.37,12.13,33.38,29.33,1.02,17.2-12.28,31.96-29.7,32.96l-87.37,5.02c-.62,.04-1.25,.06-1.86,.06Z"/><path class="cls-1" d="M173.93,219.87c-14.12,0-25.9-12.99-26.6-29.68-.71-17.21,10.62-31.84,25.32-32.68l73.73-4.2c14.67-.91,27.2,12.43,27.92,29.64,.71,17.21-10.62,31.84-25.32,32.68l-73.73,4.2c-.44,.03-.88,.04-1.32,.04Z"/><path class="cls-1" d="M42.3,314.59c-13.74,0-26.67-7.76-31.75-20.31-6.53-16.15,2.38-34.11,19.91-40.13l40.62-13.94c17.53-6.03,37.04,2.19,43.58,18.34,6.53,16.15-2.38,34.11-19.91,40.13l-40.62,13.94c-3.9,1.34-7.9,1.98-11.83,1.98Z"/><path class="cls-1" d="M214.44,289.76c-13.58,0-24.87-13.1-25.46-29.86-.6-17.21,10.31-31.77,24.38-32.51l74.08-3.91c14.18-.69,25.98,12.61,26.58,29.82,.61,17.22-10.3,31.78-24.38,32.52l-74.09,3.91c-.37,.02-.75,.03-1.12,.03Z"/><path class="cls-1" d="M245.45,370.24c-17.23,0-31.33-13.67-31.59-30.74-.26-17.23,13.68-31.4,31.13-31.65l64.04-.94c.16,0,.32,0,.48,0,17.23,0,31.32,13.66,31.59,30.73,.26,17.23-13.67,31.4-31.12,31.66l-64.06,.94c-.16,0-.32,0-.47,0Z"/><path class="cls-1" d="M213.08,115.88c-4.19,0-8.44-.83-12.52-2.57-16.02-6.84-23.39-25.2-16.46-41.02l23.47-53.59c6.93-15.82,25.53-23.1,41.54-16.25,16.02,6.84,23.39,25.2,16.46,41.02l-23.47,53.59c-5.16,11.78-16.8,18.82-29.02,18.82Z"/><path class="cls-1" d="M259.48,179.09c-4.94,0-9.96-1.15-14.64-3.57-15.46-8-21.42-26.86-13.31-42.12l27.45-51.71c8.1-15.26,27.2-21.16,42.65-13.15,15.46,7.99,21.42,26.85,13.32,42.11l-27.45,51.72c-5.65,10.64-16.64,16.72-28.01,16.72Z"/><path class="cls-1" d="M118.79,816.79c-11.06,2.24-22.98-1.47-30.7-10.65-11.14-13.26-9.28-32.93,4.15-43.93,19.09-15.63,114.43-100.46,116.36-235.39,1.53-106.68-55.38-182.06-79.91-209.52-29.77-33.32-66.15-59.77-108.12-78.59-15.89-7.13-22.92-25.62-15.7-41.31,7.21-15.69,25.95-22.63,41.84-15.5,50.14,22.49,93.67,54.16,129.37,94.12,29.39,32.89,97.55,123.26,95.71,251.69-2.27,158.24-107.12,256.26-139.2,282.54-4.13,3.38-8.88,5.55-13.8,6.55Z"/><path class="cls-1" d="M290.9,244.89c-8.62,0-17.21-3.46-23.45-10.28-11.7-12.79-10.69-32.51,2.25-44.07l41.02-36.62c12.95-11.55,32.93-10.56,44.63,2.22,11.7,12.79,10.69,32.51-2.25,44.07l-41.02,36.62c-6.05,5.4-13.63,8.05-21.18,8.05Z"/><path class="cls-1" d="M324.63,342.69c-8.62,0-17.21-3.46-23.45-10.28-11.7-12.79-10.69-32.51,2.25-44.07l41.01-36.62c12.95-11.55,32.93-10.56,44.63,2.22,11.7,12.79,10.69,32.51-2.25,44.07l-41.01,36.62c-6.05,5.4-13.63,8.05-21.18,8.05Z"/><path class="cls-1" d="M327.56,463.4c-12.28,0-23.96-7.11-29.08-18.98-6.84-15.85,.63-34.17,16.68-40.93l60.58-25.48c16.05-6.75,34.61,.63,41.45,16.49,6.84,15.85-.64,34.18-16.7,40.93l-60.56,25.47c-4.04,1.7-8.24,2.5-12.37,2.5Z"/><path class="cls-1" d="M297.22,582.31c-15.87,0-29.54-11.78-31.36-27.72-1.95-17.12,10.52-32.57,27.87-34.5l68.38-7.6c17.33-1.9,32.98,10.4,34.93,27.52,1.95,17.12-10.52,32.57-27.87,34.5l-68.38,7.6c-1.2,.13-2.39,.2-3.57,.2Z"/><path class="cls-1" d="M243.26,710.83c-15.87,0-29.54-11.77-31.36-27.71-1.96-17.12,10.52-32.57,27.86-34.5l68.38-7.61c17.36-1.96,32.98,10.38,34.94,27.51,1.96,17.12-10.52,32.57-27.86,34.5l-68.38,7.61c-1.2,.13-2.4,.2-3.58,.2Z"/><path class="cls-1" d="M229.2,811.9c-3.4,0-6.86-.55-10.26-1.7l-65.09-22.05c-16.51-5.6-25.29-23.34-19.63-39.64,5.66-16.3,23.64-24.98,40.14-19.38l65.09,22.05c16.51,5.6,25.29,23.34,19.63,39.64-4.5,12.94-16.76,21.08-29.88,21.08Z"/><path class="cls-1" d="M157.32,366.93c-1.41,.5-2.87,.92-4.39,1.22l-49.7,10.16c-17.09,3.49-33.81-7.36-37.34-24.23-3.54-16.88,7.44-33.39,24.54-36.87l49.68-10.16c17.09-3.5,33.81,7.35,37.35,24.21,3.23,15.38-5.61,30.46-20.14,35.66Z"/><path class="cls-1" d="M202.81,447.16c-2.9,1.08-6.02,1.74-9.28,1.93l-52.5,3.03c-17.42,1-32.37-12.12-33.39-29.33-1.02-17.2,12.29-31.95,29.7-32.97l52.5-3.03c17.42-1,32.37,12.12,33.39,29.33,.83,13.98-7.8,26.36-20.42,31.04Z"/><path class="cls-1" d="M205.17,664.5c-10.65,3.99-23.13,2.13-32.23-5.86l-39.29-34.52c-13.03-11.46-14.19-31.18-2.59-44.05,11.61-12.86,31.58-14.01,44.61-2.56l39.28,34.53c13.04,11.45,14.2,31.17,2.6,44.05-3.5,3.88-7.77,6.7-12.38,8.43Z"/><path class="cls-1" d="M133.87,756.86c-11.39,0-22.4-6.1-28.04-16.77l-24.33-46.03c-8.07-15.28-2.08-34.12,13.39-42.1,15.47-7.96,34.56-2.05,42.63,13.22l24.33,46.03c8.07,15.28,2.08,34.12-13.39,42.1-4.67,2.4-9.67,3.55-14.59,3.55Z"/><path class="cls-1" d="M230.76,536.57c-7.53,8.45-19.44,12.57-31.27,9.7l-51.07-12.38c-16.95-4.11-27.31-21.01-23.15-37.74,4.17-16.73,21.28-26.96,38.22-22.86l51.07,12.38c16.95,4.11,27.31,21,23.15,37.74-1.26,5.05-3.7,9.51-6.95,13.16Z"/><path class="cls-1" d="M83.34,269.04c-8.7-7.27-13.1-18.94-10.43-30.68l11.53-50.67c3.83-16.81,20.74-27.38,37.76-23.59,17.02,3.79,27.72,20.48,23.89,37.28l-11.54,50.66c-3.83,16.81-20.73,27.37-37.76,23.6-5.14-1.14-9.7-3.46-13.46-6.6Z"/><path class="cls-1" d="M207.02,328.61c-4.62,12.61-20.93,18.64-37.1,13.49-16.6-5.29-26.75-20.38-22.67-33.7l21.46-70.12c4.17-13.4,20.84-19.83,37.44-14.54,16.6,5.29,26.76,20.37,22.69,33.7l-21.47,70.13c-.11,.35-.23,.7-.35,1.05Z"/></svg>