<?xml version="1.0" encoding="UTF-8"?><svg id="Ebene_1" xmlns="http://www.w3.org/2000/svg" viewBox="0 0 229.15 147.93"><defs><style>.cls-1,.cls-2{stroke:#000;stroke-miterlimit:10;stroke-width:3px;}.cls-2{fill:#fff;}</style></defs><g><path class="cls-2" d="M32.36,98.39c-1.03-2.31-3.85-7.69-9.93-10.78-2.43-1.24-6.68-3.4-11.27-1.68-2.47,.92-5.48,3.13-6.23,6.23-1.17,4.82,3.19,11.44,11.51,13.91-1.31,.49-6.21,2.48-8.63,7.67-.64,1.38-2.87,6.15-.48,9.83,2.79,4.3,9.5,3.46,10.31,3.36,6.64-.83,10.22-6.5,10.79-7.43"/><path class="cls-1" d="M15.54,128.94c-2.95,0-7.4-.67-9.78-4.34-1.96-3.02-1.84-6.94,.35-11.65,1.47-3.15,3.76-5.28,5.83-6.66-6.88-3.54-9.97-9.85-8.83-14.57,.94-3.88,4.58-6.49,7.4-7.55,5.37-2.01,10.19,.45,12.78,1.76,6.26,3.18,9.45,8.69,10.79,11.68,.42,.95,0,2.06-.95,2.48-.95,.42-2.06,0-2.48-.95-1.39-3.11-4.1-7.34-9.07-9.87-2.22-1.13-5.94-3.02-9.76-1.59-2.12,.79-4.51,2.62-5.07,4.92-.95,3.89,2.93,9.51,10.22,11.66,.78,.23,1.32,.93,1.34,1.74,.03,.81-.47,1.54-1.22,1.82-1.62,.6-5.6,2.46-7.58,6.71-1.61,3.45-1.82,6.15-.61,8.01,2.04,3.15,7.44,2.65,8.5,2.52,5.45-.68,8.59-5.18,9.42-6.55,.54-.89,1.69-1.17,2.58-.63,.89,.54,1.17,1.7,.63,2.58-1.05,1.73-5.04,7.43-12.16,8.32-.51,.06-1.34,.14-2.34,.14Z"/></g><g><path class="cls-2" d="M142.95,22.35c-.38-2.2-1.39-6.23-4.47-10.02-4.34-5.37-12.48-9.88-20.86-7.67-.91,.24-10.07,2.81-12.47,11.27-1.21,4.26-.13,7.99,.48,9.66"/><path class="cls-1" d="M105.64,27.46c-.77,0-1.49-.47-1.77-1.24-.92-2.53-1.76-6.46-.52-10.81,2.66-9.39,12.66-12.28,13.8-12.57,9.15-2.41,18.04,2.44,22.8,8.31,2.47,3.05,4.15,6.82,4.86,10.88,.18,1.02-.51,1.99-1.53,2.17-1.02,.17-1.99-.51-2.17-1.53-.6-3.43-2-6.6-4.07-9.16-3.99-4.93-11.39-9.02-18.92-7.04-.92,.24-9.05,2.58-11.14,9.96-.96,3.39-.29,6.5,.44,8.51,.35,.97-.15,2.05-1.12,2.41-.21,.08-.43,.11-.64,.11Z"/></g><g><g><path class="cls-2" d="M28.43,119.5c.74-8.65,2.89-21.77,9.59-36.2,11.98-25.83,30.89-39.48,36.68-43.4,8.23-5.57,31.09-19.32,62.34-17.98,22.04,.94,37.75,8.94,46.13,13.32,11.68,6.11,23.14,12.09,31.07,25.28,6.61,10.98,7.83,22.05,8.87,31.41,1.32,11.92,.38,21.93-.72,28.77-3.64,3.44-9.23,8.15-16.78,12.47-6.61,3.77-23.04,11.99-82.72,10.07-25.83-.83-39.08-1.35-55.62-6.23-17-5.02-30.12-12.06-38.84-17.5Z"/><path class="cls-1" d="M140.09,145.4c-5.32,0-11.06-.09-17.26-.29-25.14-.81-38.99-1.25-56.1-6.31-13.75-4.06-26.98-10.02-39.3-17.71l-.98-.61,.1-1.15c1.1-12.86,4.39-25.25,9.76-36.83,11.12-23.96,28.16-37.96,37.33-44.16,10.91-7.38,33.66-19.58,63.47-18.3,22.91,.98,39.13,9.46,46.92,13.53,11.6,6.06,23.6,12.34,31.81,25.98,6.82,11.33,8.1,22.89,9.13,32.17,1.08,9.71,.83,19.56-.73,29.28l-.1,.63-.46,.44c-5.23,4.94-11,9.23-17.14,12.73-8.23,4.7-23.95,10.61-66.45,10.61ZM30.41,118.51c11.76,7.21,24.33,12.83,37.4,16.69,15.97,4.72,28.45,5.3,55.15,6.16,61.08,1.97,76.62-6.91,81.72-9.82,5.7-3.25,11.07-7.21,15.96-11.77,1.42-9.18,1.62-18.47,.61-27.64-1.04-9.39-2.22-20.02-8.61-30.65-7.67-12.74-18.68-18.5-30.34-24.59-7.55-3.95-23.27-12.16-45.34-13.11-28.72-1.23-50.68,10.54-61.2,17.66-8.85,5.99-25.3,19.49-36.03,42.63-5.03,10.84-8.16,22.42-9.32,34.43Z"/></g><path class="cls-1" d="M126.49,125.69c-.49,0-.98-.19-1.34-.57-2.37-2.43-14.07-15.45-11.79-33.2,1.12-8.69,5.14-15.22,8.31-19.16,.65-.81,1.83-.94,2.64-.29,.81,.65,.94,1.83,.28,2.64-2.87,3.57-6.5,9.46-7.51,17.28-2.06,16.03,8.59,27.88,10.75,30.1,.72,.74,.71,1.93-.03,2.66-.36,.36-.84,.53-1.31,.53Z"/><path class="cls-1" d="M103.26,109.09c-1.03,0-2.04-.17-2.99-.51-3.1-1.12-4.67-3.77-5.6-5.36-2.78-4.73-4.51-13.68,.61-17.87,3.15-2.58,7.3-1.96,9.78-1.59,4.31,.65,8.45,2.86,11.66,6.24,.71,.75,.69,1.94-.07,2.66-.75,.72-1.94,.68-2.66-.07-1.53-1.61-4.79-4.4-9.5-5.11-2.1-.31-4.98-.75-6.84,.78-2.87,2.35-2.24,8.83,.25,13.06,.81,1.37,1.81,3.07,3.63,3.73,3.2,1.15,7.66-1.17,10.85-5.63,.6-.84,1.78-1.04,2.62-.43,.84,.6,1.04,1.78,.43,2.62-3.4,4.74-8,7.48-12.18,7.48Z"/><path class="cls-1" d="M171.45,84.01c3.52-3.12,5.19-7.06,4.08-9.95-1.21-3.14-5.28-3.98-8.63-4.68-3.4-.71-10.37-1.5-19.42,2.28-.13,1.32-.38,5.55,2.4,8.99,2.67,3.3,6.54,3.92,9.83,4.44,4.9,.77,9.06-.17,11.75-1.08Z"/><path class="cls-1" d="M200.94,78.97h-27.45c-1.04,0-1.88-.84-1.88-1.88s.84-1.88,1.88-1.88h27.45c1.04,0,1.88,.84,1.88,1.88s-.84,1.88-1.88,1.88Z"/><path class="cls-1" d="M204.09,84.74c-3.05-3.12-4.5-7.06-3.53-9.95,1.05-3.14,4.57-3.98,7.48-4.68,2.95-.71,8.98-1.5,16.82,2.28,.11,1.32,.33,5.55-2.08,8.99-2.31,3.3-5.67,3.92-8.51,4.44-4.24,.77-7.85-.17-10.17-1.08Z"/><path class="cls-1" d="M187.22,95.03c-1.02,0-2.05-.1-3.07-.31-1.02-.2-1.68-1.19-1.47-2.21,.2-1.02,1.2-1.67,2.21-1.47,1.55,.31,3.11,.31,4.65,0,1.31-.27,2.57-.75,3.72-1.45,.89-.54,2.04-.25,2.58,.64,.53,.89,.25,2.04-.64,2.58-1.52,.92-3.17,1.56-4.91,1.91-1.02,.21-2.04,.31-3.07,.31Z"/></g></svg>