<?xml version="1.0" encoding="UTF-8"?><svg id="Ebene_1" xmlns="http://www.w3.org/2000/svg" xmlns:xlink="http://www.w3.org/1999/xlink" viewBox="0 0 600 700"><defs><style>.cls-1{stroke-miterlimit:10;}.cls-1,.cls-2{stroke:#1d1d1b;stroke-width:4px;}.cls-1,.cls-2,.cls-3{fill:none;}.cls-4{fill:url(#Neues_Muster_4);opacity:.59;}.cls-2{stroke-linecap:round;stroke-linejoin:round;}</style><pattern id="Neues_Muster_4" x="0" y="0" width="483.52" height="535.68" patternTransform="translate(-4884.87 -4086.4) scale(.55 .45)" patternUnits="userSpaceOnUse" viewBox="0 0 483.52 535.68"><g><rect class="cls-3" width="483.52" height="535.68"/><g><circle class="cls-1" cx="468.75" cy="416.52" r="12.77"/><circle class="cls-1" cx="302.2" cy="458.34" r="8.41"/><circle class="cls-1" cx="275.89" cy="524.49" r="9.59" transform="translate(-315.31 483.43) rotate(-58.28)"/><circle class="cls-1" cx="375.86" cy="504.58" r="9.59" transform="translate(-250.96 559.03) rotate(-58.28)"/><g><path class="cls-2" d="M455.73,517.34c-.06-4.26-.11-8.51-.17-12.77"/><path class="cls-2" d="M455.65,544.4c-.06-4.26-.11-8.51-.17-12.77"/><line class="cls-2" x1="449.09" y1="524.32" x2="441.44" y2="524.32"/><line class="cls-2" x1="470.54" y1="524.32" x2="462.88" y2="524.32"/></g></g><g><circle class="cls-1" cx="226.99" cy="416.52" r="12.77"/><circle class="cls-1" cx="60.44" cy="458.34" r="8.41"/><circle class="cls-1" cx="34.13" cy="524.49" r="9.59" transform="translate(-429.97 277.78) rotate(-58.28)"/><circle class="cls-1" cx="134.1" cy="504.58" r="9.59" transform="translate(-365.62 353.38) rotate(-58.28)"/><g><path class="cls-2" d="M213.97,517.34c-.06-4.26-.11-8.51-.17-12.77"/><path class="cls-2" d="M213.89,544.4c-.06-4.26-.11-8.51-.17-12.77"/><line class="cls-2" x1="207.33" y1="524.32" x2="199.68" y2="524.32"/><line class="cls-2" x1="228.78" y1="524.32" x2="221.12" y2="524.32"/></g></g><g><circle class="cls-1" cx="423.08" cy="190.5" r="8.41"/><circle class="cls-1" cx="474.38" cy="338.55" r="5.61"/><circle class="cls-1" cx="396.77" cy="256.65" r="9.59" transform="translate(-30.15 459.23) rotate(-58.28)"/><g><path class="cls-2" d="M397.02,372.7c-.06-4.26-.11-8.51-.17-12.77"/><path class="cls-2" d="M396.94,399.76c-.06-4.26-.11-8.51-.17-12.77"/><line class="cls-2" x1="390.39" y1="379.68" x2="382.73" y2="379.68"/><line class="cls-2" x1="411.83" y1="379.68" x2="404.17" y2="379.68"/></g></g><g><circle class="cls-1" cx="347.87" cy="148.69" r="12.77"/><circle class="cls-1" cx="181.32" cy="190.5" r="8.41"/><circle class="cls-1" cx="232.62" cy="338.55" r="5.61"/><circle class="cls-1" cx="328.21" cy="382.29" r="9.59" transform="translate(-169.53 460.5) rotate(-58.28)"/><circle class="cls-1" cx="155.01" cy="256.65" r="9.59" transform="translate(-144.8 253.58) rotate(-58.28)"/><circle class="cls-1" cx="254.98" cy="236.74" r="9.59" transform="translate(-80.45 329.18) rotate(-58.28)"/><g><path class="cls-2" d="M155.26,372.7c-.06-4.26-.11-8.51-.17-12.77"/><path class="cls-2" d="M155.18,399.76c-.06-4.26-.11-8.51-.17-12.77"/><line class="cls-2" x1="148.63" y1="379.68" x2="140.97" y2="379.68"/><line class="cls-2" x1="170.07" y1="379.68" x2="162.41" y2="379.68"/></g><g><path class="cls-2" d="M334.85,249.5c-.06-4.26-.11-8.51-.17-12.77"/><path class="cls-2" d="M334.77,276.56c-.06-4.26-.11-8.51-.17-12.77"/><line class="cls-2" x1="328.21" y1="256.48" x2="320.56" y2="256.48"/><line class="cls-2" x1="349.66" y1="256.48" x2="342" y2="256.48"/></g></g><g><circle class="cls-1" cx="106.11" cy="148.69" r="12.77"/><circle class="cls-1" cx="86.45" cy="382.29" r="9.59" transform="translate(-284.19 254.85) rotate(-58.28)"/><circle class="cls-1" cx="13.22" cy="236.74" r="9.59" transform="translate(-195.11 123.52) rotate(-58.28)"/><g><path class="cls-2" d="M93.09,249.5c-.06-4.26-.11-8.51-.17-12.77"/><path class="cls-2" d="M93.01,276.56c-.06-4.26-.11-8.51-.17-12.77"/><line class="cls-2" x1="86.45" y1="256.48" x2="78.8" y2="256.48"/><line class="cls-2" x1="107.9" y1="256.48" x2="100.24" y2="256.48"/></g></g><g><circle class="cls-1" cx="353.5" cy="70.71" r="5.61"/><circle class="cls-1" cx="449.09" cy="114.45" r="9.59" transform="translate(115.64 436.3) rotate(-58.28)"/><circle class="cls-1" cx="275.89" cy="-11.19" r="9.59" transform="translate(140.36 229.38) rotate(-58.28)"/><g><path class="cls-2" d="M276.14,104.86c-.06-4.26-.11-8.51-.17-12.77"/><path class="cls-2" d="M276.06,131.92c-.06-4.26-.11-8.51-.17-12.77"/><line class="cls-2" x1="269.51" y1="111.84" x2="261.85" y2="111.84"/><line class="cls-2" x1="290.95" y1="111.84" x2="283.29" y2="111.84"/></g><path class="cls-2" d="M455.65,8.72c-.06-4.26-.11-8.51-.17-12.77"/></g><g><circle class="cls-1" cx="111.74" cy="70.71" r="5.61"/><circle class="cls-1" cx="207.33" cy="114.45" r="9.59" transform="translate(.98 230.65) rotate(-58.28)"/><circle class="cls-1" cx="34.13" cy="-11.19" r="9.59" transform="translate(25.7 23.72) rotate(-58.28)"/><g><path class="cls-2" d="M34.38,104.86c-.06-4.26-.11-8.51-.17-12.77"/><path class="cls-2" d="M34.3,131.92c-.06-4.26-.11-8.51-.17-12.77"/><line class="cls-2" x1="27.75" y1="111.84" x2="20.09" y2="111.84"/><line class="cls-2" x1="49.19" y1="111.84" x2="41.53" y2="111.84"/></g><path class="cls-2" d="M213.89,8.72c-.06-4.26-.11-8.51-.17-12.77"/></g></g></pattern></defs><polygon class="cls-4" points="-23.25 707.74 604.74 715.18 619.75 -273.49 -8.25 -280.93 -23.25 707.74"/></svg>