<?xml version="1.0" encoding="UTF-8"?><svg id="Ebene_1" xmlns="http://www.w3.org/2000/svg" viewBox="0 0 595.28 841.89"><defs><style>.cls-1{fill:#9ad357;}</style></defs><path class="cls-1" d="M455.63,377.09c-4.74,18.47-8.79,36.17-13.81,53.43-37.44,128.77-97.46,226.17-179.84,291.25-50.78,40.12-102.98,58.85-156.09,58.16-25.06-.33-49.05-5.71-72.26-15.32-6.37-2.64-9.47-9.48-8.41-18.76,1.19-10.36,5.79-17.28,13.32-19.34,28.66-7.85,56.54-22.18,83.26-44.64,67.9-57.07,116.53-139.56,143.96-248.61,7.18-28.56,11.99-57.97,18.07-87.89-2.73-.5-4.51-.83-6.29-1.16-21.78-4.03-43.55-8.16-65.37-12-6.01-1.06-10.54-4.45-11.28-14.16-.73-9.65,2.84-16.64,8.38-22.62,67.36-72.73,134.67-145.59,202-218.38,8.9-9.62,15.53-8.49,20.35,3.56,36.96,92.25,73.88,184.55,110.88,276.76,2.95,7.36,3.49,15.09-.38,23.5-3.92,8.51-9.19,10.61-15.04,9.5-21.93-4.17-43.89-8.15-65.84-12.21-1.82-.34-3.64-.67-5.61-1.04ZM88.38,740.92c-.07,.86-.13,1.71-.2,2.57,12.43-.41,32.5-1.34,45-2.96,91.37-11.84,169.45-75.51,233.62-190.5,31.44-56.35,53.09-119.45,66.26-187.57,4.45-23.04,8.43-27.18,22.79-24.53,15.3,2.83,30.59,5.66,45.9,8.46,1.39,.25,2.83,.24,3.95,.32-30.64-76.53-61.21-152.87-91.27-227.96-55.42,59.94-111.23,120.31-167.03,180.67l4.36,.81c16.13,2.98,32.26,5.93,48.38,8.95,9.68,1.81,12.84,9.41,10.06,24.61-4.42,24.22-8.85,48.44-13.46,72.62-16,83.83-45.72,157.41-88.31,221.1-33.07,49.44-78.34,88.1-120.05,113.42Z"/></svg>