<?xml version="1.0" encoding="utf-8"?>
<!-- Generator: Adobe Illustrator 27.0.1, SVG Export Plug-In . SVG Version: 6.00 Build 0)  -->
<svg version="1.1" id="Ebene_1" xmlns="http://www.w3.org/2000/svg" xmlns:xlink="http://www.w3.org/1999/xlink" x="0px" y="0px"
	 viewBox="0 0 595.3 841.9" style="enable-background:new 0 0 595.3 841.9;" xml:space="preserve">
<style type="text/css">
	.st0{fill:#FFFFFF;}
	.st1{fill:#1D1D1B;}
</style>
<g>
	<path class="st0" d="M69.5,327.9c-12.1,9.3-15.1,24.5-8.8,34.4c5.4,8.5,18.5,14.5,28.3,9.7c6-2.9,8.5-8.7,9.4-11
		c2.7,15.9,16.9,27.2,32.3,26.6c13.2-0.5,25.1-9.7,28.9-22.7c1.3,11.9,10.8,21.5,22.9,23.4c12.5,1.9,24.8-4.8,29.6-16.2
		c1.4,2.1,10.5,15.5,26.9,17.5c16.7,2.1,34.2-8.3,41.7-26c4.8,14,21.3,20.9,36.3,19c15.2-1.9,24.9-12.5,25.6-27.4
		c1.7,2.2,12.2,14.9,28.9,15.6c17.8,0.7,24.3-7.7,29.9-27.8c3.4,10.5,23.9,12.8,33.3,12.8c12.5,0,24.5-12.4,22.9-27.9
		c4.7,10.7,15.8,16.4,25.6,14.3c12-2.6,16.6-16,16.2-24.7c-0.7-13.1-13.3-25.4-31.3-27.9"/>
	<path class="st1" d="M243.5,401.4c-2,0-3.9-0.1-5.9-0.4c-10.5-1.3-18.6-5.9-24.5-10.8c-8.6,7.5-20.5,11.2-32.4,9.4
		c-8.8-1.3-16.6-5.5-22.4-11.5c-7.3,6.5-16.9,10.6-27.2,10.9c-14.5,0.6-27.9-6.2-36.2-17.1c-0.2,0.1-0.5,0.2-0.7,0.3
		c-15.9,7.6-35.4-1.1-43.7-14c-9.9-15.5-5-36.7,11.4-49.4c5.1-3.9,12.6-3.2,16.7,1.8c4.1,4.9,3.3,12.1-1.8,16.1
		c-7.7,5.9-9.1,14.7-6.1,19.5c2.7,4.3,9.5,7.1,12.9,5.5c2-1,3.1-3.6,3.5-4.7c1.8-4.9,6.9-8,12.3-7.5c5.4,0.5,9.8,4.4,10.6,9.6
		c1.7,9.9,10.5,17.3,20.1,17c8.2-0.3,15.6-6.3,18-14.5c1.6-5.3,6.8-8.7,12.4-8.2c5.7,0.5,10.2,4.7,10.8,10.2
		c0.7,6.8,6.1,12.2,12.9,13.3c7,1.1,14.1-2.8,16.8-9.2c1.7-4,5.5-6.7,9.9-7.1c4.4-0.4,8.7,1.7,11.1,5.3c1.2,1.8,7.7,11,18.4,12.3
		c11.6,1.5,23.9-6.5,29.2-19c1.9-4.4,6.4-7.2,11.4-7.1c5,0.2,9.3,3.3,10.9,7.8c2.9,8.5,14.3,12.4,23.5,11.2
		c9.5-1.2,14.9-7.1,15.3-16.5c0.2-4.8,3.5-9,8.3-10.4c4.8-1.5,9.9,0.1,13,3.9c1.4,1.8,9.1,10.7,20.1,11.1c8.2,0.3,12.4,0.5,18-19.3
		c1.4-4.9,6-8.3,11.2-8.4c5.2-0.2,10,3.2,11.5,8c1.3,1.7,10.8,4.8,21.8,4.8h0.2c2.4,0,5.2-1.4,7.3-3.7c2.9-3.1,4.2-7.3,3.8-11.7
		c-0.6-5.6,3.2-10.8,8.8-12.3c5.7-1.4,11.6,1.4,13.9,6.6c2.6,5.8,8.2,8.5,12.1,7.6c5-1.1,7.1-8.9,6.9-13c-0.3-7-8.4-15.4-21.1-17.2
		c-6.5-0.9-11-6.7-10-13c0.9-6.3,7-10.6,13.4-9.7c23,3.2,40.4,19.5,41.4,38.7c0.7,14.8-7.9,32.6-25.4,36.4
		c-7.5,1.6-15.2,0.5-21.9-2.8c-1.2,2-2.6,3.8-4.3,5.5c-6.6,7.1-15.7,11.2-24.9,11.3c-3.7,0-16.8-0.3-27.9-4.9
		c-5.9,11.6-15.9,20.7-35.9,19.8c-8.9-0.4-16.4-3.2-22.4-6.8c-6.1,10-16.7,16.8-30.1,18.5c-14.1,1.8-27.6-2.1-37.2-9.9
		C271.6,394.9,257.8,401.3,243.5,401.4L243.5,401.4z"/>
</g>
<path class="st1" d="M145.9,722.3c-3.1,0-6.3-1.2-8.6-3.5c-27.5-27.8-41-55.6-40.1-82.5c0.3-10.2,2.6-16.7,4.9-23.5
	c2.4-7,5.2-15,6.8-30.6c1.8-17.1,4-38.4-5-56.6c-2.8-5.6-5.1-8-7.8-10.7c-3.6-3.6-8-8.1-11.2-17.7c-6-18.4-1.2-35.3,6-60.9
	c5-17.7,11.5-35.2,19.4-51.9c2.7-5.8,9.7-8.3,15.7-5.7c6,2.6,8.6,9.4,5.9,15.2c-7.3,15.6-13.4,31.9-18.1,48.4
	c-7.1,25-10,36.5-6.3,48c1.5,4.5,2.8,5.9,5.7,8.7c3.2,3.2,7.7,7.7,12.1,16.6c11.9,23.9,9.2,49.9,7.2,68.8c-1.9,18-5.2,27.7-7.9,35.5
	c-2.1,6.1-3.5,10.2-3.7,17c-0.7,20.6,10.6,42.8,33.5,66c4.5,4.6,4.3,11.8-0.4,16.2C151.8,721.3,148.8,722.3,145.9,722.3L145.9,722.3
	z"/>
<path class="st1" d="M304.4,839.7c-1.4,0-2.8-0.2-4.2-0.8c-17.9-6.5-42.8-19.9-60.3-46.3c-25.1-38-20.9-81-18.6-104.1
	c1.8-18.3,5.2-27.4,7.6-33.9c2.2-5.9,3.4-9.1,3.1-17.6c-0.8-21.3-10.3-33.2-21.3-46.9c-11.1-13.7-23.7-29.3-25.1-54.7
	c-1-17.7,4.1-28.4,9.5-39.8c4.8-10.1,10.2-21.5,13.4-42c3.6-23.1,2.8-47.1-2.5-71.4c-1.3-6.2,2.8-12.3,9.2-13.6
	c6.4-1.3,12.7,2.7,14,8.9c5.9,26.9,6.8,53.7,2.7,79.5c-3.7,23.7-10.1,37.2-15.3,48.1c-4.8,10.2-8,16.9-7.3,29
	c1,18.3,9.9,29.2,20.1,41.9c11.9,14.7,25.3,31.4,26.3,60.1c0.5,12.9-1.9,19.3-4.5,26.2c-2.2,6.1-4.8,12.9-6.3,28.4
	c-2,20.4-5.7,58.3,15,89.6c14,21.1,34.2,31.9,48.7,37.2c6.1,2.2,9.2,8.9,6.9,14.8C313.7,836.9,309.1,839.7,304.4,839.7L304.4,839.7z
	"/>
<path class="st1" d="M486.5,786.8c-16.3,0-31.7-4.4-44.6-12.8c-25.7-16.8-33.7-44.1-37.6-57.3c-8.4-28.6-4.5-48.6-1.4-64.6
	c2.7-13.9,4.5-23.1-1.2-34.7c-5.5-11.2-12.9-14.2-23.9-18.7c-12.9-5.3-29-11.9-41.7-33.7c-15.2-26-20-63.8-11.9-94
	c1.9-6.9,4-12.3,5.9-17.1c3-7.5,5.2-12.8,5.1-21.7c-0.1-13-5-26.3-14.6-39.4c-3.8-5.2-2.5-12.3,2.8-16c5.3-3.7,12.7-2.4,16.5,2.7
	c12.5,17,18.9,34.7,19,52.5c0.1,13.2-3.4,21.9-6.7,30.2c-1.8,4.4-3.6,8.9-5.1,14.5c-7.7,28.7-0.7,59.4,9.6,77.1
	c8.8,15,18.7,19.1,30.3,23.8c12.5,5.1,26.6,10.9,36,29.9c9.1,18.3,6.1,33.8,3.2,48.8c-2.9,15.1-6,30.7,0.9,54.1
	c3.3,11.3,9.6,32.4,28.1,44.6c14.7,9.6,30.6,9.7,41.5,8.1c6.5-1,12.5,3.3,13.5,9.6c1,6.2-3.4,12.1-9.9,13.1
	C495.6,786.5,491,786.9,486.5,786.8L486.5,786.8z"/>
<path class="st1" d="M567.3,636.3c-13.6,0-24.1-3.6-31.2-7.2c-29.1-14.9-43.7-50.5-45.3-79.1c-0.4-6.8,0.1-11.8,0.5-15.8
	c0.5-5.7,0.6-7.2-0.9-10c-2.2-4.1-5.2-5.6-11.8-8.6c-6.5-3-14.6-6.7-22.7-14.8c-10.6-10.6-17.9-25.6-20.5-42.4
	c-2.8-17.8,1.6-30.9,5.5-42.5c3.6-10.6,6.7-19.7,4.3-32.2c-1.4-7.1-2.7-9.1-4.8-12.3l-1.2-1.8c-3.5-5.4-1.7-12.4,3.8-15.8
	c5.6-3.3,12.9-1.7,16.3,3.7l1,1.5c3.4,5.1,6.2,9.8,8.2,20.5c3.5,18.2-1,31.6-5,43.5c-3.5,10.5-6.6,19.5-4.6,31.9
	c1.9,12.1,6.9,22.8,14.1,30c5.1,5.1,10.3,7.5,15.8,10c7.9,3.6,16.8,7.7,22.7,18.8c4.7,8.8,4.1,15.8,3.5,22.5
	c-0.3,3.7-0.7,7.4-0.4,12.6c1.2,22.1,12.8,49.9,32.7,60.1c6.5,3.3,17.6,6.6,33.4,3c6.4-1.5,12.8,2.4,14.3,8.6
	c1.5,6.2-2.5,12.3-8.9,13.8C579.3,635.7,573.1,636.3,567.3,636.3L567.3,636.3z"/>
<g>
	<path class="st0" d="M69.5,326.9c25.7,11.9,49.6,15.1,88.2,15.9c78.2,1.7,138.3-8.1,155.5-11.1c53.3-9.1,79.9-13.7,113.1-27.7
		c46.2-19.5,107.5-45.4,117.1-92.1c15.7-76.5-118.9-154.4-128.5-159.9c-27.3-15.5-97.6-53.9-189.1-36
		c-13.6,2.7-94.5,19.8-154.8,94.8c-33,41.1-83.4,128.9-51.8,179.3C30.9,309.1,51.7,318.7,69.5,326.9L69.5,326.9z"/>
	<path class="st1" d="M175.2,354.5c-6,0-11.9-0.1-17.8-0.2c-38.2-0.8-64.3-3.8-93-17c-18.6-8.6-41.8-19.3-55.5-41.1
		C-26.4,240,25.4,148.9,61.5,103.9c59.6-74.2,138.9-94.6,161.8-99c97.8-19.2,172.8,23.4,197.5,37.3c15.5,8.8,151.3,88.4,134.2,172
		c-10.7,52.5-76.2,80.2-124,100.3c-34.4,14.5-61.6,19.2-115.7,28.5C271.7,350.5,222.6,354.5,175.2,354.5L175.2,354.5z M273.1,22.9
		c-14.3,0-29.4,1.3-45.1,4.4c-20.9,4.1-93.2,22.7-147.8,90.6c-35.1,43.7-77.6,124-51,166.3c10,15.9,28.8,24.6,45.4,32.3l0,0
		c22.1,10.2,43.1,13.9,83.3,14.8c51.3,1.1,105.7-2.8,153.1-10.9c52.3-9,78.5-13.5,110.4-26.9c43-18.2,101.9-43,110.2-83.8
		C543,154.4,456.2,88.9,408.7,62C390,51.4,339.9,22.9,273.1,22.9L273.1,22.9z"/>
</g>
<ellipse transform="matrix(0.5413 -0.8408 0.8408 0.5413 -72.8913 192.4233)" class="st1" cx="139.9" cy="163" rx="19.6" ry="14.2"/>
<ellipse transform="matrix(0.5594 -0.8289 0.8289 0.5594 24.1529 338.2152)" class="st1" cx="330.2" cy="146.4" rx="17.7" ry="21.5"/>
<path class="st1" d="M257.2,194.6c-1.2,0-2.3-0.1-3.4-0.2c-6.5-1-12.2-4.6-16.4-9.9c-2.9,2.7-6.2,4.9-9.6,6.5
	c-6.8,3.2-13.9,3.7-19.8,1.5c-13.6-5.1-16-22.1-16.3-25.5c-0.5-5.2,3.4-9.9,8.9-10.4c5.5-0.5,10.3,3.3,10.8,8.5
	c0.5,4.3,2.6,9,3.8,9.6c0.3,0.1,1.8,0.2,4.2-0.9c5.1-2.5,9.5-8.1,11.7-15.1c1.5-4.7,6.5-7.5,11.5-6.5c5,1,8.4,5.5,7.8,10.4
	c-0.9,7.3,3.7,12.5,6.5,12.9c1.1,0.2,3.3-0.5,5.4-2.2c1.5-1.2,4.8-4.8,4.7-10.9c-0.1-5.3,4.2-9.6,9.7-9.7c5.6-0.1,10,4.1,10.1,9.3
	c0.2,9.9-4,19.3-11.5,25.6C269.8,192.2,263.4,194.6,257.2,194.6L257.2,194.6z"/>
</svg>
